<?xml version="1.0" encoding="utf-8"?>
<!-- Generator: Adobe Illustrator 23.1.0, SVG Export Plug-In . SVG Version: 6.00 Build 0)  -->
<svg version="1.1" id="Layer_1" xmlns="http://www.w3.org/2000/svg" xmlns:xlink="http://www.w3.org/1999/xlink" x="0px" y="0px"
	 viewBox="0 0 800 800" style="enable-background:new 0 0 800 800;" xml:space="preserve">
<style type="text/css">
	.st0{fill:#FFFFFF;}
</style>
<path class="st0" d="M711.9,404.9c0.1-3.8,3-8.2,6.3-9.9l68.4-34.3c3.4-1.7,5.6-6.1,5-9.8l-15.8-72.7c-1-3.6-4.9-6.8-8.7-7l-77.8-5
	c-3.8-0.2-8.2-3.2-9.9-6.5L669,240.2c-1.9-3.3-1.9-8.6,0-11.8l39.3-66.2c1.9-3.2,1.5-8.2-1-11l-52.9-54c-2.8-2.5-7.8-3.1-11-1.3
	l-67.7,37.6c-3.3,1.8-8.6,1.7-11.8-0.2l-18.3-10.4c-3.3-1.8-6.2-6.3-6.3-10.1l-2.8-77.6c-0.1-3.8-3.2-7.7-6.8-8.8L456.3,8.8
	c-3.7-0.7-8.2,1.5-10,4.8L410,81.4c-1.8,3.3-4.8,6-6.7,6h-1.7c-10.6,0-24.5,1-24.5,1c-3.8,0.3-8.6-2-10.7-5.1l-44.5-64.1
	c-2.1-3.1-6.9-4.8-10.5-3.8l-70,23.6c-3.5,1.4-6.1,5.6-5.8,9.4l6,76.1c0.3,3.8-2.1,8.5-5.2,10.5L214,150.5c-3,2.2-8.3,2.9-11.8,1.5
	l-72.1-29.8c-3.5-1.4-8.4-0.3-10.9,2.5l-44.9,55.7c-2.2,3.1-2.1,8,0.1,11l46,60.5c2.3,3,2.8,8.2,1.3,11.7l-12.5,29.9
	c-1.3,3.5-5.4,7-9.1,7.6l-76.5,13.8c-3.7,0.7-7.2,4.3-7.8,8c0,0-7.5,47-7.5,75.1v0.2c0,0.2,2.9,1.4,6.4,2.6L86,426.9
	c3.5,1.3,6.9,5.4,7.4,9.1l6.7,36.5c0.8,3.7-0.7,8.8-3.5,11.3l-56.5,52.6c-2.8,2.6-3.7,7.5-2.2,10.9l30.8,59.8
	c1.9,3.3,6.5,5.2,10.1,4.4l74.4-16.7c3.7-0.8,8.7,0.8,11.2,3.6l27.4,28.5c2.7,2.6,4.2,7.7,3.3,11.4l-18.9,74.3
	c-0.9,3.6,0.9,8.3,4.1,10.3l58.1,32.8c3.4,1.7,8.3,0.9,10.9-1.8l53.9-54.6c2.6-2.7,7.8-4.1,11.4-3.1l38.3,8.5
	c3.7,0.7,7.7,4.1,8.9,7.7l24.1,72.2c1.2,3.6,5.2,6.6,9,6.7c0,0,2,0.1,6.5,0.1c23.1,0,61-5,61-5c3.7-0.5,7.4-3.9,8.2-7.6l15.9-75.7
	c0.8-3.7,4.3-7.7,7.9-8.9l33.7-12.8c3.5-1.5,8.7-0.8,11.6,1.6l59.2,47.7c2.9,2.4,7.9,2.6,11,0.4l55.5-42.1c2.9-2.4,4.1-7.3,2.8-10.8
	l-27.7-72.7c-1.3-3.5-0.5-8.8,1.8-11.8l18.3-25c2.1-3.1,6.9-5.3,10.7-4.9l75.7,8.1c3.7,0.4,8-2.1,9.5-5.6l24.8-67.8
	c1.1-3.6-0.5-8.4-3.5-10.6l-62.8-46.4c-3-2.2-5.2-7.1-4.9-10.9L711.9,404.9L711.9,404.9z M400.5,628.7
	c-126.6,0-229.2-102.6-229.2-229.2c0-126.6,102.6-229.2,229.2-229.2s229.2,102.6,229.2,229.2S527.1,628.7,400.5,628.7z"/>
<path d="M572,320c0,0,0,0.9,0,2s0,2,0,2s0-0.9,0-2S572,320,572,320z"/>
</svg>
